<svg width="16" height="16" viewBox="0 0 16 16" fill="none" xmlns="http://www.w3.org/2000/svg">
<g id="Etherscan Logo">
<path id="Path_1" d="M3.3308 7.60858C3.3308 7.2393 3.63416 6.93594 4.0028 6.93594H5.13624C5.50552 6.93594 5.82168 7.2393 5.82168 7.62202V11.8966C5.95352 11.8569 6.1116 11.8172 6.29656 11.7775C6.5468 11.7116 6.73176 11.4876 6.73176 11.2233V5.91962C6.73176 5.55034 7.03512 5.23354 7.4172 5.23354H8.55064C8.91992 5.23354 9.23608 5.5369 9.23608 5.91962V10.8412C9.23608 10.8412 9.5132 10.7222 9.78969 10.6038C10.0009 10.5116 10.1327 10.3139 10.1327 10.0758V4.20506C10.1327 3.83578 10.4361 3.51898 10.8054 3.51898H11.9388C12.3081 3.51898 12.6114 3.82234 12.6114 4.20506V9.0473C13.5868 8.33498 14.589 7.47738 15.3801 6.44826C15.6175 6.1449 15.6834 5.74874 15.5516 5.37946C14.1014 1.2105 9.54072 -1.00646 5.37496 0.445056C1.2092 1.89658 -1.0052 6.46106 0.444404 10.6307C0.602484 11.1055 0.813684 11.5542 1.06392 11.9894C1.26168 12.3324 1.63096 12.5302 2.02648 12.4905C2.23768 12.4771 2.50136 12.4508 2.83032 12.4111C3.12024 12.3849 3.33144 12.134 3.33144 11.8435L3.3308 7.60858Z" fill="#7000FF"/>
<path id="Path_2" d="M3.30371 14.4694C6.87619 17.0685 11.8727 16.2768 14.4692 12.7017C15.458 11.3296 15.9981 9.6803 15.9981 7.99198C15.9981 7.80702 15.9847 7.6227 15.9719 7.43774C13.0592 11.8045 7.66723 13.8493 3.30371 14.4694Z" fill="#7000FF"/>
</g>
</svg>
