<svg width="18" height="16" viewBox="0 0 18 16" fill="none" xmlns="http://www.w3.org/2000/svg">
<g id="Vector">
<path d="M2.99355 0H14.2452V16H12.5935V8.67097H12.5773C12.3948 6.64539 10.6925 5.05806 8.61936 5.05806C6.54626 5.05806 4.8439 6.64539 4.66136 8.67097H4.64516V16H2.99355V0Z" fill="#7000FF"/>
<path d="M0 2.27097L0.670968 4.54194H1.23871V13.729C0.953659 13.729 0.722581 13.9601 0.722581 14.2452V14.8645H0.619355C0.334305 14.8645 0.103226 15.0956 0.103226 15.3806V16H5.88387V15.3806C5.88387 15.0956 5.65279 14.8645 5.36774 14.8645H5.26452V14.2452C5.26452 13.9601 5.03344 13.729 4.74839 13.729H4.12903V2.27097H0Z" fill="#7000FF"/>
<path d="M12.6968 13.729C12.4117 13.729 12.1806 13.9601 12.1806 14.2452V14.8645H12.0774C11.7924 14.8645 11.5613 15.0956 11.5613 15.3806V16H17.3419V15.3806C17.3419 15.0956 17.1109 14.8645 16.8258 14.8645H16.7226V14.2452C16.7226 13.9601 16.4915 13.729 16.2065 13.729V4.54194H16.7742L17.4452 2.27097H13.3161V13.729H12.6968Z" fill="#7000FF"/>
</g>
</svg>
