<svg width="26" height="16" viewBox="0 0 26 16" fill="none" xmlns="http://www.w3.org/2000/svg">
<path id="Vector" fill-rule="evenodd" clip-rule="evenodd" d="M17.3915 4.21238C18.4271 3.34842 19.5824 3.01972 20.6904 3.10282C21.8722 3.19146 22.9659 3.74546 23.7828 4.55014C24.5995 5.35487 25.1607 6.43125 25.2506 7.59289C25.3412 8.76513 24.9487 9.9929 23.9139 11.0704C23.8193 11.1696 23.7226 11.2675 23.6238 11.3642C18.9301 15.9878 12.6954 16 12.6316 16H12.6313C12.5994 16 6.34494 15.9998 1.63918 11.3638L1.63817 11.3626C1.54101 11.2664 1.44534 11.1694 1.35111 11.072L1.35036 11.0711C0.315061 9.99452 -0.0778095 8.76706 0.0125434 7.59482C0.102073 6.43336 0.66285 5.35687 1.47944 4.55186C2.29596 3.74689 3.38956 3.19245 4.57165 3.10343C5.67956 3.02 6.83509 3.34831 7.87113 4.21183C7.98254 2.87995 8.56294 1.84336 9.40546 1.13073C10.304 0.370659 11.475 0 12.6313 0C13.7877 0 14.9587 0.370659 15.8572 1.13073C16.6998 1.84346 17.2802 2.88024 17.3915 4.21238ZM12.8462 15.5313L12.846 15.5254H12.8464L12.8462 15.5313ZM12.4165 15.5313L12.4163 15.5254H12.4167L12.4165 15.5313ZM16.1576 9.11115C16.0292 9.11115 15.9847 9.29386 16.0666 9.39064C16.2115 9.56205 16.2988 9.78259 16.2988 10.0232C16.2988 10.5692 15.8496 11.0118 15.2955 11.0118C14.7413 11.0118 14.292 10.5692 14.292 10.0232C14.292 9.994 14.2533 9.97948 14.2359 10.0032C14.0776 10.2173 13.9708 10.4577 13.9269 10.7101C13.9021 10.8522 13.7849 10.9701 13.6375 10.9701H13.5561C13.3638 10.9701 13.2051 10.8164 13.2335 10.6303C13.4281 9.35475 14.7041 8.42965 16.1576 8.42965C17.6111 8.42965 18.8871 9.35475 19.0816 10.6303C19.1099 10.8164 18.9513 10.9701 18.7591 10.9701C18.5666 10.9701 18.4144 10.8156 18.3725 10.6319C18.1824 9.79586 17.3005 9.11115 16.1576 9.11115ZM7.24701 10.0232C7.24701 9.98468 7.19633 9.964 7.17247 9.99466C7.0033 10.2121 6.88803 10.4584 6.83923 10.718C6.81043 10.8713 6.68381 10.9988 6.52447 10.9988H6.46476C6.27243 10.9988 6.11377 10.8452 6.14212 10.6591C6.33661 9.38285 7.61278 8.45842 9.06619 8.45842C10.5196 8.45842 11.7957 9.38285 11.9902 10.6591C12.0186 10.8452 11.8599 10.9988 11.6676 10.9988C11.4753 10.9988 11.323 10.8445 11.2812 10.6607C11.0911 9.82414 10.2092 9.13993 9.06619 9.13993C8.96229 9.13993 8.92426 9.28365 8.99381 9.35915C9.15541 9.53463 9.25389 9.7676 9.25389 10.0232C9.25389 10.5692 8.80464 11.0118 8.25045 11.0118C7.69626 11.0118 7.24701 10.5692 7.24701 10.0232ZM13.7476 12.4073C13.8836 12.2741 14.0936 12.2094 14.2624 12.2995C14.4312 12.3899 14.4952 12.5993 14.3736 12.7452C13.9774 13.2198 13.336 13.5207 12.6287 13.5207C11.9216 13.5207 11.2788 13.2231 10.8822 12.7447C10.761 12.5986 10.8258 12.3892 10.9949 12.2995C11.164 12.2099 11.3738 12.2755 11.5095 12.4087C11.771 12.6656 12.1677 12.8393 12.6287 12.8393C13.0884 12.8393 13.4856 12.6638 13.7476 12.4073Z" fill="#7000FF"/>
</svg>
