<svg width="33" height="28" viewBox="0 0 33 28" fill="none" xmlns="http://www.w3.org/2000/svg">
<g id="Possibly Safe">
<path id="Polygon 3" d="M14.7386 2.53125C15.3881 1.40625 17.0119 1.40625 17.6614 2.53125L30.7386 25.1816C31.3881 26.3066 30.5762 27.7128 29.2772 27.7128H3.12285C1.82381 27.7128 1.01191 26.3066 1.66143 25.1816L14.7386 2.53125Z" fill="#FFA800"/>
<path id="!" d="M14.6568 18.2122L14.4094 9H17.4547L17.1978 18.2122H14.6568ZM15.9321 23.0182C15.3991 23.0182 14.9772 22.8754 14.6663 22.5899C14.3555 22.3044 14.2 21.9174 14.2 21.4289C14.2 20.9277 14.3555 20.5375 14.6663 20.2583C14.9772 19.9728 15.3991 19.8301 15.9321 19.8301C16.4713 19.8301 16.8933 19.9728 17.1978 20.2583C17.5087 20.5375 17.6641 20.9277 17.6641 21.4289C17.6641 21.9174 17.5087 22.3044 17.1978 22.5899C16.8933 22.8754 16.4713 23.0182 15.9321 23.0182Z" fill="white"/>
</g>
</svg>
