<svg width="16" height="14" viewBox="0 0 16 14" fill="none" xmlns="http://www.w3.org/2000/svg">
<path d="M7.21809 1.40662C7.39425 0.864462 8.16125 0.864459 8.33741 1.40662L8.96649 3.34271C9.31301 4.40922 10.3069 5.1313 11.4283 5.1313H13.464C14.034 5.1313 14.2711 5.86076 13.8099 6.19583L12.1629 7.39241C11.2557 8.05154 10.8761 9.21989 11.2226 10.2864L11.8517 12.2225C12.0279 12.7646 11.4073 13.2155 10.9461 12.8804L9.29921 11.6838C8.39199 11.0247 7.16351 11.0247 6.25629 11.6838L4.60935 12.8804C4.14816 13.2155 3.52764 12.7646 3.7038 12.2225L4.33287 10.2864C4.6794 9.21989 4.29978 8.05154 3.39256 7.39241L1.74562 6.19583C1.28443 5.86076 1.52145 5.1313 2.09151 5.1313H4.12724C5.24863 5.1313 6.24248 4.40922 6.58901 3.34271L7.21809 1.40662Z" fill="#7000FF" stroke="#7A12FE" stroke-width="2"/>
</svg>
