<svg width="12" height="14" viewBox="0 0 12 14" fill="none" xmlns="http://www.w3.org/2000/svg">
<path id="Union" d="M6.09698 12.4801C5.82989 12.6763 5.48144 12.6763 5.21435 12.4801C4.64166 12.0595 3.91128 11.4812 3.23761 10.8264C2.55355 10.1615 1.98156 9.46891 1.6675 8.82586C0.928738 7.3132 1.00402 5.13165 1.15545 3.82116C1.18263 3.58594 1.3377 3.35078 1.61453 3.20809L5.19749 1.36121C5.48497 1.21302 5.82636 1.21302 6.11384 1.36121L9.6968 3.20809C9.97362 3.35078 10.1287 3.58594 10.1559 3.82116C10.3073 5.13165 10.3826 7.3132 9.64383 8.82586C9.32977 9.46891 8.75778 10.1615 8.07372 10.8264C7.40005 11.4812 6.66967 12.0595 6.09698 12.4801Z" fill="#00A94F" stroke="#00A94F" stroke-width="2"/>
</svg>
