<svg width="19" height="16" viewBox="0 0 19 16" fill="none" xmlns="http://www.w3.org/2000/svg">
<path d="M8.84912 1.5C9.23402 0.833331 10.1963 0.833333 10.5812 1.5L18.0867 14.5C18.4716 15.1667 17.9905 16 17.2207 16H2.20959C1.43979 16 0.958664 15.1667 1.34356 14.5L8.84912 1.5Z" fill="#FF0000"/>
<path d="M8.74128 10.3187L8.59842 5H10.3567L10.2083 10.3187H8.74128ZM9.47754 13.0934C9.16985 13.0934 8.92626 13.011 8.74677 12.8462C8.56728 12.6813 8.47754 12.4579 8.47754 12.1758C8.47754 11.8864 8.56728 11.6612 8.74677 11.5C8.92626 11.3352 9.16985 11.2527 9.47754 11.2527C9.78889 11.2527 10.0325 11.3352 10.2083 11.5C10.3878 11.6612 10.4775 11.8864 10.4775 12.1758C10.4775 12.4579 10.3878 12.6813 10.2083 12.8462C10.0325 13.011 9.78889 13.0934 9.47754 13.0934Z" fill="white"/>
</svg>
